<svg width="5533" height="5515" viewBox="0 0 5533 5515" fill="none" xmlns="http://www.w3.org/2000/svg">
<path d="M1608.22 0.0566406C1519.23 175.998 1468.04 374.324 1468.19 584.986C1468.4 1177.95 1866.79 1676.93 2410.15 1831.77C2655.72 1344.9 2575.82 735.986 2169.02 329.583C2007.32 167.988 1813.5 58.5258 1608.22 0.0566406Z" fill="#0B212E"/>
<path d="M1679.17 163C1605.98 307.656 1563.88 470.716 1564 643.919C1564.17 1131.45 1891.85 1541.7 2338.76 1669C2540.75 1268.71 2475.03 768.069 2140.43 433.931C2007.44 301.071 1848.02 211.072 1679.17 163Z" fill="white"/>
<path d="M1875.4 2385.22C1725.44 1833.89 1222.55 1428.03 623.727 1428.34C397.579 1428.43 185.103 1486.59 0 1588.35C57.352 1799.85 168.03 1999.89 334.227 2165.86C751.808 2583.14 1382.67 2655.7 1875.4 2385.22Z" fill="#0B212E"/>
<path d="M1683 2303.89C1563.78 1865.48 1163.97 1542.75 687.883 1543C508.088 1543.07 339.163 1589.31 192 1670.23C237.597 1838.42 325.589 1997.49 457.721 2129.46C789.712 2461.27 1291.26 2518.97 1683 2303.89Z" fill="white"/>
<path d="M3156.52 3630.24C2870.76 4126.6 2938.7 4770.91 3363.28 5194.91C3516.19 5347.69 3697.94 5453.53 3890.84 5514.12C4000.48 5323.61 4064.11 5103.28 4063.99 4867.67C4063.79 4287.13 3682.27 3795.95 3156.52 3630.24Z" fill="#0B212E"/>
<path d="M3221.31 3797C2986.19 4205.39 3042.09 4735.51 3391.44 5084.36C3517.25 5210.07 3666.81 5297.15 3825.53 5347C3915.74 5190.25 3968.1 5008.97 3968 4815.12C3967.84 4337.47 3653.91 3933.34 3221.31 3797Z" fill="white"/>
<path d="M3674.42 3128.79C3844.01 3648.65 4332.16 4024.53 4908.59 4024.14C5127.17 4024.07 5332.81 3969.38 5513.52 3873.84C5452.14 3685.55 5347.79 3508.2 5198.08 3358.63C4785.44 2946.3 4164.44 2869.86 3674.42 3128.79Z" fill="#47B6FE"/>
<path d="M3849 3199.47C3986.4 3620.73 4381.89 3925.32 4848.9 3925C5025.99 3924.94 5192.6 3880.63 5339 3803.21C5289.27 3650.63 5204.73 3506.92 5083.44 3385.72C4749.13 3051.6 4246.01 2989.65 3849 3199.47Z" fill="white"/>
<path d="M1468.19 4868.73C1468.28 5103.95 1531.89 5323.92 1641.4 5514.15C1834.64 5453.45 2016.7 5347.3 2169.76 5194.05C2593.55 4769.96 2661.26 4126.14 2375.66 3630.2C1849.41 3796.01 1467.79 4287.75 1468.19 4868.73Z" fill="#0B212E"/>
<path d="M1564 4815.99C1564.07 5009.52 1616.41 5190.49 1706.52 5347C1865.52 5297.06 2015.32 5209.73 2141.26 5083.64C2489.96 4734.72 2545.68 4205.03 2310.68 3797C1877.67 3933.42 1563.67 4337.99 1564 4815.99Z" fill="white"/>
<path d="M1857.76 3128.78C1367.41 2869.54 746.006 2946.33 333.476 3359.25C184.106 3508.74 80.0115 3685.9 18.7461 3873.94C199.76 3969.63 405.821 4024.29 624.838 4024.14C1200.76 4023.94 1688.33 3648.2 1857.76 3128.78Z" fill="#0B212E"/>
<path d="M1683 3199.53C1285.98 2989.48 782.842 3051.7 448.828 3386.28C327.888 3507.39 243.605 3650.94 194 3803.3C340.562 3880.84 507.404 3925.13 684.736 3925C1151.04 3924.84 1545.82 3620.39 1683 3199.53Z" fill="white"/>
<path d="M4063.99 583.946C4063.92 373.62 4012.68 175.66 3923.81 0C3718.3 58.5815 3524.3 168.269 3362.54 330.187C2956.32 736.702 2876.82 1345.21 3122.09 1831.74C3665.85 1676.8 4064.3 1177.36 4063.99 583.946Z" fill="#47B6FE"/>
<path d="M3968 643.103C3967.94 470.18 3925.8 307.423 3852.69 163C3683.64 211.164 3524.05 301.346 3390.99 434.47C3056.83 768.695 2991.43 1268.99 3193.19 1669C3640.49 1541.62 3968.25 1130.99 3968 643.103Z" fill="white"/>
<path d="M3656.84 2385.18C4150.01 2655.84 4781.27 2583.07 5198.83 2164.99C5364.53 1999.18 5474.94 1799.46 5532.19 1588.32C5346.79 1486.42 5133.99 1428.23 4907.48 1428.34C4309.06 1428.57 3806.79 1834.34 3656.84 2385.18Z" fill="#47B6FE"/>
<path d="M3848 2303.73C4240.62 2519.2 4743.18 2461.27 5075.6 2128.44C5207.52 1996.44 5295.42 1837.45 5341 1669.36C5193.4 1588.23 5023.98 1541.91 4843.65 1542C4367.24 1542.18 3967.38 1865.21 3848 2303.73Z" fill="white"/>
</svg>
